HIERARCHY
ROOT Hips
{
	OFFSET 0.000000 0.000000 0.000000
	CHANNELS 6 Xposition Yposition Zposition Xrotation Yrotation Zrotation
	JOINT LeftUpLeg_virtual
	{
		OFFSET 0.000000 0.000000 0.000000
		CHANNELS 3 Xrotation Yrotation Zrotation
		JOINT LeftUpLeg
		{
			OFFSET 15.427100 -6.655098 0.678600
			CHANNELS 3 Xrotation Yrotation Zrotation
			JOINT LeftLeg
			{
				OFFSET 4.081073 -39.591068 13.024000
				CHANNELS 3 Xrotation Yrotation Zrotation
				JOINT LeftFoot
				{
					OFFSET -4.081074 -37.707932 -15.979700
					CHANNELS 3 Xrotation Yrotation Zrotation
					JOINT LeftToeBase
					{
						OFFSET 5.346399 -15.068900 20.645000
						CHANNELS 3 Xrotation Yrotation Zrotation
						JOINT LeftToe_End
						{
							OFFSET 2.754700 0.931300 11.300900
							CHANNELS 3 Xrotation Yrotation Zrotation
							End Site
							{
								OFFSET 0 0 0
							}
						}
					}
				}
			}
		}
	}
	JOINT RightUpLeg_virtual
	{
		OFFSET 0.000000 0.000000 0.000000
		CHANNELS 3 Xrotation Yrotation Zrotation
		JOINT RightUpLeg
		{
			OFFSET -15.569500 -6.655098 0.678600
			CHANNELS 3 Xrotation Yrotation Zrotation
			JOINT RightLeg
			{
				OFFSET -4.081825 -39.591045 13.023800
				CHANNELS 3 Xrotation Yrotation Zrotation
				JOINT RightFoot
				{
					OFFSET 4.081824 -37.707954 -15.979600
					CHANNELS 3 Xrotation Yrotation Zrotation
					JOINT RightToeBase
					{
						OFFSET -5.346400 -15.068900 20.645000
						CHANNELS 3 Xrotation Yrotation Zrotation
						JOINT RightToe_End
						{
							OFFSET -2.754700 0.931300 11.300900
							CHANNELS 3 Xrotation Yrotation Zrotation
							End Site
							{
								OFFSET 0 0 0
							}
						}
					}
				}
			}
		}
	}
	JOINT Spine_virtual
	{
		OFFSET 0.000000 0.000000 0.000000
		CHANNELS 3 Xrotation Yrotation Zrotation
		JOINT Spine
		{
			OFFSET -0.279200 12.230698 -2.892100
			CHANNELS 3 Xrotation Yrotation Zrotation
			JOINT Spine1
			{
				OFFSET -0.232667 10.192268 -1.242267
				CHANNELS 3 Xrotation Yrotation Zrotation
				JOINT Spine1_split
				{
					OFFSET -0.232667 10.192268 -1.242267
					CHANNELS 3 Xrotation Yrotation Zrotation
					JOINT Spine2
					{
						OFFSET -0.232667 10.192268 -1.242267
						CHANNELS 3 Xrotation Yrotation Zrotation
						JOINT Neck_virtual
						{
							OFFSET 0.000000 0.000000 0.000000
							CHANNELS 3 Xrotation Yrotation Zrotation
							JOINT Neck
							{
								OFFSET -0.418800 17.814194 8.416900
								CHANNELS 3 Xrotation Yrotation Zrotation
								JOINT Head
								{
									OFFSET 0.000000 7.031097 3.806800
									CHANNELS 3 Xrotation Yrotation Zrotation
									JOINT HeadTop_End
									{
										OFFSET 0.000000 24.646606 12.978600
										CHANNELS 3 Xrotation Yrotation Zrotation
										End Site
										{
											OFFSET 0 0 0
										}
									}
								}
							}
						}
						JOINT LeftShoulder_virtual
						{
							OFFSET 0.000000 0.000000 0.000000
							CHANNELS 3 Xrotation Yrotation Zrotation
							JOINT LeftShoulder
							{
								OFFSET 8.476499 7.247704 -3.868750
								CHANNELS 3 Xrotation Yrotation Zrotation
								JOINT LeftShoulder_split
								{
									OFFSET 8.476499 7.247704 -3.868750
									CHANNELS 3 Xrotation Yrotation Zrotation
									JOINT LeftArm
									{
										OFFSET 9.308998 -2.777710 0.208600
										CHANNELS 3 Xrotation Yrotation Zrotation
										JOINT LeftForeArm
										{
											OFFSET 29.972298 0.000000 0.000000
											CHANNELS 3 Xrotation Yrotation Zrotation
											JOINT LeftHand
											{
												OFFSET 26.026505 0.000000 0.000000
												CHANNELS 3 Xrotation Yrotation Zrotation
												End Site
												{
													OFFSET 0 0 0
												}
											}
										}
									}
								}
							}
						}
						JOINT RightShoulder_virtual
						{
							OFFSET 0.000000 0.000000 0.000000
							CHANNELS 3 Xrotation Yrotation Zrotation
							JOINT RightShoulder
							{
								OFFSET -7.570500 7.247704 -3.868750
								CHANNELS 3 Xrotation Yrotation Zrotation
								JOINT RightShoulder_split
								{
									OFFSET -7.570500 7.247704 -3.868750
									CHANNELS 3 Xrotation Yrotation Zrotation
									JOINT RightArm
									{
										OFFSET -9.308998 -2.777710 0.208500
										CHANNELS 3 Xrotation Yrotation Zrotation
										JOINT RightForeArm
										{
											OFFSET -29.972300 0.000000 0.000000
											CHANNELS 3 Xrotation Yrotation Zrotation
											JOINT RightHand
											{
												OFFSET -26.026505 0.000000 0.000000
												CHANNELS 3 Xrotation Yrotation Zrotation
												End Site
												{
													OFFSET 0 0 0
												}
											}
										}
									}
								}
							}
						}
					}
				}
			}
		}
	}
}
MOTION
Frames: 4
Frame Time: 0.03333333
0.012944 88.252625 -3.084297 0.000000 0.000000 0.000000 -24.509908 -2.335542 -1.914572 7.605796 20.044930 8.073823 32.263256 5.213170 -9.771463 -19.892805 29.991866 8.129939 0.704956 0.019732 -0.826678 0.000000 0.000000 0.000000 -24.509908 -2.335542 -1.914572 23.655578 -14.728731 -1.988912 29.238281 -8.320926 0.977758 -24.326024 -30.400858 2.086194 0.885155 -0.003202 0.646003 0.000000 0.000000 0.000000 -24.509908 -2.335542 -1.914572 11.213225 -4.820284 -0.424450 3.545655 -2.400649 -0.151373 0.000000 0.000000 0.000000 0.000000 0.000000 0.000000 3.557024 -2.388379 -0.108336 1.551789 0.634303 -1.308391 -6.938529 0.762142 3.865454 0.000000 0.000000 0.000000 3.557024 -2.388379 -0.108336 0.445071 -15.488178 -11.025447 0.000000 0.000000 0.000000 -20.285392 3.054798 -36.773557 0.000014 -67.201938 0.000041 0.000000 0.000000 0.000000 3.557024 -2.388379 -0.108336 0.064831 14.691501 14.953775 0.000000 0.000000 0.000000 -12.069992 -6.923744 61.446649 -0.000002 39.415447 -0.000001 0.000000 0.000000 0.000000 
-0.598687 87.875702 -2.588150 0.000000 0.000000 0.000000 -24.552312 -4.101923 -3.105949 5.385429 20.723518 10.572557 36.065096 5.339383 -9.683777 -18.410643 30.154718 6.960671 0.945477 0.067452 -2.525803 0.000000 0.000000 0.000000 -24.552312 -4.101923 -3.105949 23.649173 -14.056638 -1.432956 29.751771 -7.938318 1.186203 -25.244680 -29.278357 1.427546 0.904366 -0.003375 0.659829 0.000000 0.000000 0.000000 -24.552312 -4.101923 -3.105949 11.241885 -4.935900 -0.091250 3.545656 -2.400650 -0.151373 0.000000 0.000000 0.000000 0.000000 0.000000 0.000000 3.557025 -2.388381 -0.108336 1.594335 0.627989 -1.252939 -6.802726 0.692378 4.007736 0.000000 0.000000 0.000000 3.557025 -2.388381 -0.108336 0.460826 -15.508025 -10.923493 0.000000 0.000000 0.000000 -20.284323 3.109533 -36.878930 0.000029 -67.192888 0.000042 0.000000 0.000000 0.000000 3.557025 -2.388381 -0.108336 0.056285 14.633621 15.032352 0.000000 0.000000 0.000000 -11.965737 -6.692805 61.317163 -0.000020 39.454072 0.000018 0.000000 0.000000 0.000000 
-1.209957 87.439156 -2.047142 0.000000 0.000000 0.000000 -24.619700 -5.890818 -4.326838 2.577469 21.099373 13.339611 40.333329 5.302195 -9.480380 -16.541084 30.190355 6.865851 1.444083 0.164695 -4.600677 0.000000 0.000000 0.000000 -24.619700 -5.890818 -4.326838 23.644535 -13.424762 -0.906549 30.371942 -7.672748 1.337226 -26.158409 -27.995998 0.961700 0.860864 -0.003055 0.628335 0.000000 0.000000 0.000000 -24.619700 -5.890818 -4.326838 11.272507 -5.050244 0.256946 3.545656 -2.400649 -0.151373 0.000000 0.000000 0.000000 0.000000 0.000000 0.000000 3.557025 -2.388378 -0.108335 1.648779 0.606484 -1.184733 -6.610728 0.500817 4.168910 0.000000 0.000000 0.000000 3.557025 -2.388378 -0.108335 0.472353 -15.517850 -10.848854 0.000000 0.000000 0.000000 -20.272655 3.135284 -36.949227 0.000030 -67.183503 0.000017 0.000000 0.000000 0.000000 3.557025 -2.388378 -0.108335 0.054214 14.638965 15.044533 0.000000 0.000000 0.000000 -11.849486 -6.498835 61.233971 -0.000002 39.468859 -0.000004 0.000000 0.000000 0.000000 
-1.653856 87.028900 -1.535049 0.000000 0.000000 0.000000 -24.717608 -7.747164 -5.497311 -0.211225 20.843186 15.813688 43.851573 4.908739 -9.030331 -14.061532 28.325904 6.578468 0.742376 0.262354 -5.784742 0.000000 0.000000 0.000000 -24.717608 -7.747164 -5.497311 23.512798 -12.864253 -0.641294 31.037165 -7.403417 1.434951 -26.889942 -26.609357 0.716411 0.811729 -0.002711 0.592815 0.000000 0.000000 0.000000 -24.717608 -7.747164 -5.497311 11.297028 -5.133790 0.530527 3.545657 -2.400649 -0.151373 0.000000 0.000000 0.000000 0.000000 0.000000 0.000000 3.557024 -2.388380 -0.108335 1.686213 0.561395 -1.092499 -6.453756 0.145328 4.405430 0.000000 0.000000 0.000000 3.557024 -2.388380 -0.108335 0.474332 -15.543180 -10.838166 0.000000 0.000000 0.000000 -20.339588 3.221951 -37.004387 -0.000071 -67.196029 -0.000067 0.000000 0.000000 0.000000 3.557024 -2.388380 -0.108335 0.058779 14.667363 14.999022 0.000000 0.000000 0.000000 -11.779101 -6.388079 61.227236 -0.000004 39.443420 0.000000 0.000000 0.000000 0.000000 
